<svg width="22" height="21" viewBox="0 0 22 21" fill="none" xmlns="http://www.w3.org/2000/svg">
<g clip-path="url(#clip0)">
<path d="M20.9228 17.139L16.1051 12.5876C15.3873 13.6422 14.4373 14.5392 13.3209 15.2173L18.139 19.7687C18.9081 20.4951 20.1552 20.4951 20.9228 19.7687C21.692 19.0435 21.692 17.8654 20.9228 17.139Z" fill="#C4B998"/>
<path d="M16.2507 7.91509C16.2507 3.80699 12.7247 0.476044 8.37578 0.476044C4.02693 0.476044 0.500793 3.80699 0.500793 7.91509C0.500793 12.0232 4.02693 15.354 8.37578 15.354C12.7247 15.354 16.2507 12.0232 16.2507 7.91509ZM8.37578 13.4942C5.11889 13.4942 2.4696 10.9917 2.4696 7.91513C2.4696 4.83853 5.11889 2.3359 8.37578 2.3359C11.6326 2.3359 14.2821 4.83853 14.2821 7.91513C14.2821 10.9917 11.6326 13.4942 8.37578 13.4942Z" fill="#C4B998"/>
<path d="M3.78113 7.9151H5.09346C5.09346 6.20602 6.56559 4.81552 8.37478 4.81552V3.57571C5.84217 3.57571 3.78113 5.52265 3.78113 7.9151Z" fill="#C4B998"/>
</g>
<defs>
<clipPath id="clip0">
<rect width="21" height="19.8374" fill="white" transform="translate(0.499817 0.476044)"/>
</clipPath>
</defs>
</svg>
